<svg xmlns="http://www.w3.org/2000/svg" xmlns:xlink="http://www.w3.org/1999/xlink" width="51" zoomAndPan="magnify" viewBox="0 0 38.25 80.249996" height="107" preserveAspectRatio="xMidYMid meet" version="1.2"><defs><clipPath id="3c828638d5"><path d="M 0 0.402344 L 36.777344 0.402344 L 36.777344 79.109375 L 0 79.109375 Z M 0 0.402344 "/></clipPath></defs><g id="67e6e85289"><g clip-rule="nonzero" clip-path="url(#3c828638d5)"><path style=" stroke:none;fill-rule:nonzero;fill:#231f20;fill-opacity:1;" d="M 28.304688 13.449219 L 36.785156 13.449219 L 36.785156 0.503906 L 25.945312 0.503906 L 25.945312 0.554688 C 11.699219 1.074219 8.777344 9.164062 8.515625 17.683594 L 8.492188 17.683594 L 8.492188 26.667969 L 0.0078125 26.667969 L 0.0078125 39.621094 L 8.492188 39.621094 L 8.492188 79.011719 L 23.71875 79.011719 L 23.71875 39.621094 L 34.632812 39.621094 L 36.785156 26.667969 L 23.71875 26.667969 L 23.71875 18.632812 C 23.71875 15.773438 25.605469 13.449219 28.304688 13.449219 Z M 28.304688 13.449219 "/></g></g></svg>