<svg xmlns="http://www.w3.org/2000/svg" xmlns:xlink="http://www.w3.org/1999/xlink" width="107" zoomAndPan="magnify" viewBox="0 0 80.25 80.249996" height="107" preserveAspectRatio="xMidYMid meet" version="1.2"><defs><clipPath id="0d2acd7f9d"><path d="M 0 0 L 79.507812 0 L 79.507812 79.507812 L 0 79.507812 Z M 0 0 "/></clipPath></defs><g id="808162391a"><g clip-rule="nonzero" clip-path="url(#0d2acd7f9d)"><path style=" stroke:none;fill-rule:nonzero;fill:#231f20;fill-opacity:1;" d="M 39.660156 7.15625 C 50.25 7.15625 51.5 7.191406 55.691406 7.382812 C 59.550781 7.554688 61.65625 8.199219 63.0625 8.753906 C 64.90625 9.46875 66.230469 10.335938 67.621094 11.726562 C 69.011719 13.117188 69.863281 14.441406 70.59375 16.285156 C 71.132812 17.675781 71.773438 19.777344 71.964844 23.65625 C 72.15625 27.847656 72.191406 29.097656 72.191406 39.6875 C 72.191406 50.277344 72.15625 51.527344 71.964844 55.71875 C 71.792969 59.578125 71.148438 61.683594 70.59375 63.089844 C 69.878906 64.933594 69.011719 66.253906 67.621094 67.644531 C 66.230469 69.035156 64.90625 69.886719 63.0625 70.617188 C 61.671875 71.15625 59.570312 71.800781 55.691406 71.992188 C 51.5 72.183594 50.25 72.21875 39.660156 72.21875 C 29.070312 72.21875 27.820312 72.183594 23.628906 71.992188 C 19.769531 71.820312 17.664062 71.175781 16.257812 70.617188 C 14.414062 69.90625 13.09375 69.035156 11.703125 67.644531 C 10.3125 66.253906 9.457031 64.933594 8.726562 63.089844 C 8.191406 61.699219 7.546875 59.59375 7.355469 55.71875 C 7.164062 51.527344 7.128906 50.277344 7.128906 39.6875 C 7.128906 29.097656 7.164062 27.847656 7.355469 23.65625 C 7.527344 19.796875 8.171875 17.691406 8.726562 16.285156 C 9.441406 14.441406 10.3125 13.117188 11.703125 11.726562 C 13.09375 10.335938 14.414062 9.484375 16.257812 8.753906 C 17.648438 8.214844 19.753906 7.570312 23.628906 7.382812 C 27.820312 7.191406 29.070312 7.15625 39.660156 7.15625 M 39.660156 0.0078125 C 28.878906 0.0078125 27.542969 0.0625 23.300781 0.253906 C 19.074219 0.445312 16.1875 1.121094 13.667969 2.09375 C 11.058594 3.105469 8.851562 4.460938 6.640625 6.667969 C 4.449219 8.875 3.09375 11.085938 2.085938 13.691406 C 1.113281 16.214844 0.433594 19.101562 0.242188 23.324219 C 0.0507812 27.550781 0 28.90625 0 39.667969 C 0 50.449219 0.0507812 51.789062 0.242188 56.03125 C 0.433594 60.257812 1.113281 63.140625 2.085938 65.664062 C 3.09375 68.273438 4.449219 70.480469 6.660156 72.6875 C 8.867188 74.894531 11.074219 76.253906 13.683594 77.261719 C 16.203125 78.234375 19.089844 78.914062 23.316406 79.105469 C 27.542969 79.296875 28.898438 79.347656 39.679688 79.347656 C 50.457031 79.347656 51.796875 79.296875 56.039062 79.105469 C 60.265625 78.914062 63.152344 78.234375 65.671875 77.261719 C 68.28125 76.253906 70.488281 74.894531 72.695312 72.6875 C 74.90625 70.480469 76.261719 68.273438 77.269531 65.664062 C 78.242188 63.140625 78.921875 60.257812 79.113281 56.03125 C 79.304688 51.804688 79.355469 50.449219 79.355469 39.667969 C 79.355469 28.890625 79.304688 27.550781 79.113281 23.308594 C 78.921875 19.082031 78.242188 16.195312 77.269531 13.675781 C 76.261719 11.066406 74.90625 8.859375 72.695312 6.652344 C 70.488281 4.441406 68.28125 3.085938 65.671875 2.078125 C 63.152344 1.105469 60.265625 0.425781 56.039062 0.234375 C 51.796875 0.0625 50.441406 0.0078125 39.660156 0.0078125 "/></g><path style=" stroke:none;fill-rule:nonzero;fill:#231f20;fill-opacity:1;" d="M 39.660156 19.308594 C 28.410156 19.308594 19.300781 28.417969 19.300781 39.667969 C 19.300781 50.917969 28.429688 60.046875 39.679688 60.046875 C 50.925781 60.046875 60.054688 50.9375 60.054688 39.667969 C 60.039062 28.417969 50.910156 19.308594 39.660156 19.308594 M 39.660156 52.902344 C 32.359375 52.902344 26.445312 46.988281 26.445312 39.6875 C 26.445312 32.382812 32.359375 26.472656 39.660156 26.472656 C 46.964844 26.472656 52.875 32.382812 52.875 39.6875 C 52.890625 46.972656 46.964844 52.902344 39.660156 52.902344 "/><path style=" stroke:none;fill-rule:nonzero;fill:#231f20;fill-opacity:1;" d="M 65.601562 18.507812 C 65.601562 21.132812 63.464844 23.273438 60.839844 23.273438 C 58.214844 23.273438 56.074219 21.132812 56.074219 18.507812 C 56.074219 15.882812 58.214844 13.746094 60.839844 13.746094 C 63.464844 13.746094 65.601562 15.867188 65.601562 18.507812 "/></g></svg>